<?xml version="1.0" encoding="UTF-8"?>
<svg version="1.1" viewBox="0 0 1024 1024" width="1024" height="1024" xmlns="http://www.w3.org/2000/svg">
<path transform="translate(424,294)" d="m0 0h181l175 2 34 1 6 4 4 5 2 7v130l-1 96-1 61-1 13-4 7-6 4-8 1-114-6-35-1h-26l75 13 10 3 15 12 14 11 17 14 11 9 12 10 11 9 13 11 9 7 16 8 23 12 14 7 14 10 12 11 12 16 7 12 5 14 1 11v13l-3 16-6 12-7 8-14 8-11 2h-11l-25-4-30-8-22-8-26-12-39-22v10l1 12 1 43v104l17 1 10 2 12 5 10 7 7 8 2 8-1 1h-536v-7l8-10 10-7 12-5 10-2 18-1-1-12v-112l1-7-80 1-18-1-6-1h-8l-19 3h-9l-11-2-12-6-8-9-6-15-2-12v-24l1-4-9-1-10-3-2-4 1-6 15-23 3-3 2-1 10 1 8 1 1-5 8-14 11-17 12-17 10-15 9-10 7-7 9-5 7-3 14-8 6-2h8l8 4 10 7 4 6 1 3 4-1 14-11 10-7 15-11 12-8 28-6 32-6 3-1h-27l-51 2-98 5-8-3-6-7-1-4-2-95v-207l4-7 5-4 3-1 11-1 142-1zm79 5m2 0v2l15-1v-1zm16 0m4 0 1 2h2v-2zm4 0v2h3v-2zm4 0v2l3-1zm4 1v1l29 1h14l4-2zm-246 530m-5 1-2 4h4l3-2v-2zm10 1-4 3-1 4h13l1-1v-5l-1-1z" fill="#201B29"/>
<path transform="translate(466,713)" d="m0 0h105l46 2 28 3 23 5 16 6 11 7 10 10 6 10 6 17 3 17 2 24 2 40 1 33v85l-1 45-1 7h-409l-1-2-1-20-1-35v-91l2-49 3-37 3-17 5-15 7-12 11-11 15-8 15-5 19-4 29-3z" fill="#545978"/>
<path transform="translate(449,319)" d="m0 0h133l60 1 97 1 64 2 2 3v93l-2 79-1 84-2 2-44-2-99-4-92-2-1-1v-7l8-16 5-11 2-1 5 2h9l5-5 7-19 6-23-1-9-3-5-10-4 3-22-1-14-4-10-2-2 1-4 5-7 1-4v-9l-5-10-6-4-6-2h-25l-11-9-11-4h-20l-13 3 3-10-15 4-11 5-8 5-2 1-2-7-16 2-12 15-9 14-1 2-10 4-10 7-4 3 2 4 10 8-2 11v11l3 17v3l-7 3-3 6v10l4 15 10 27 4 3 6 1 10-3 8 16 7 12 1 8-87 2-83 3-65 3-3-3-1-102-1-38v-117l1-1 65-2 106-1z" fill="#F99FA4"/>
<path transform="translate(473,298)" d="m0 0h83l209 2 46 1 6 4 3 3 1 3v184l-1 73-1 41-3 7-4 3-3 1-28-1-57-3-86-3-42-1-9-10-5-5-18-4v-11h53l75 2 107 4 5-3 1-1 1-68 2-88v-103l-2-4-2-1-79-2-108-1-56-1h-94l-55 1-107 1-86 2-3 3-1 46v33l2 85 1 96 4 4 6 1 105-4 79-2h47v12l-11 3-5 5-9 10-103 3-69 3-39 2h-9l-6-4-3-4-1-15-1-45-1-75v-164l3-7 5-4 3-1 48-1zm30 1m2 0v2l15-1v-1zm16 0m4 0 1 2h2v-2zm4 0v2h3v-2zm4 0v2l3-1zm4 1v1l29 1h14l4-2z" fill="#AFADC0"/>
<path transform="translate(496,374)" d="m0 0h4l-2 10 17-5h21l14 7 4 4-1 3 10-1 14-1 9 2 7 5 4 8v7l-3 7-8 7 6 4 4 10v22l-2 14-4 16-10 29-8 18-11 22-6 3-16 4-8 1h-40l-19-4-10-4-6-7-12-23-11-25-9-27-4-16-1-7v-10l3-10 2-3-6-2-8-6 5-5 5-4h3v-2l8-3h3l1-5 10-14 8-10 3-2 9-1 3 8 4-1 5-4 14-7z" fill="#472A13"/>
<path transform="translate(712,640)" d="m0 0 5 2 11 9 16 12 32 26 14 12 11 9 12 10 24 12 7 8 8 10 13 16 8 8 2 1-4-8-6-8 1-2 6 5 2 1-2-4-5-6-5-5-1-2 6 2 10 7 10 9 10 11 9 13 6 10 3 12v27l-4 14-6 9-8 7-9 4-4 1h-19l-13-2-29-7-27-9-28-13-27-15-14-9-2-2-3-31-4-18 1-12v-55l-7-41z" fill="#3A88A8"/>
<path transform="translate(416,620)" d="m0 0 7 1 11 4 30 7 27 4 11 1h18l24-2 27-4 28-6 12-4 2-1 25 5 69 12 2 1 1 17 7 43v5l-56-6-42-3h-47l-26 1h-56l-54-2-50 3-52 5-13 1 1-10 8-38 2-18 12-3 48-9z" fill="#3A88A8"/>
<path transform="translate(327,638)" d="m0 0 2 2-1 15-6 29-4 20v45l1 14-4 15-2 14-2 22-16 8-20 9-24 9-26 8-30 8-14 2h-17l-10-3-8-6-5-6-3-7-3-13-1-10v-14l3-14 5-13 7-11 7-8 9-7 2 1-10 14-2 3-1 6h3l2-5 8-10 7-9 2 1-7 14-1 3 5-5 13-20 6-9 21-10 12-5 8-7 16-12 18-14 15-12 15-11 17-12z" fill="#3A88A8"/>
<path transform="translate(285,321)" d="m0 0h103l-2 1-2 5-7 10-14 18-12 14-5 6-23 23-8 7-13 11-13 10-10 7-13 9-16 10-15 9-13 6v23h-1l-1-11-1-38v-117l1-1z" fill="#FBAFB5"/>
<path transform="translate(425,695)" d="m0 0h28l55 2h23l55-2h23l44 3 52 5 10 1 3 2v44l-1 10-3-4-7-12-6-7-10-7-14-7-19-5-25-4-28-2-50-2h-72l-69 3-26 3-25 6-16 7-11 7-8 9-5 8-2 4h-1v-53l61-6z" fill="#3B85A5"/>
<path transform="translate(508,590)" d="m0 0h20l27 4 26 6 10 12 4 5 5 3-1 2-16 5-28 5-31 3h-25l-24-3-29-6-12-4-3-3 10-9 7-9 9-3 13-3 28-4z" fill="#3A87A7"/>
<path transform="translate(227,663)" d="m0 0h18l15 4 9 5v4l-12 10-26 20-10 8-21 9-16 8-16 9-12 9h-3l6-10 5-9 14-21 10-14 7-11 13-13 9-5z" fill="#3A87A7"/>
<path transform="translate(257,322)" d="m0 0h39l-2 4-9 10-18 18-8 7-12 10-19 14-8 4-1-2v-63l1-1z" fill="#F99FA4"/>
<path transform="translate(473,298)" d="m0 0h83l209 2 46 1 6 4 3 3-1 3-4-3-4-1-42-1-132-1-23-1h-200l-99 1-97 2-9 1-6 4 1-5 6-5 3-1 48-1zm30 1m2 0v2l15-1v-1zm16 0m4 0 1 2h2v-2zm4 0v2h3v-2zm4 0v2l3-1zm4 1v1l29 1h14l4-2z" fill="#F6F6F7"/>
<path transform="translate(327,638)" d="m0 0 2 2v7l-1 4-12 7-14 10-13 10-10 9-8 7-15 13-11 9-13 10-17 11-21 12-19 11-1-2 10-16 7-11 17-9 17-7 8-7 16-12 18-14 15-12 15-11 17-12z" fill="#B0E9F4"/>
<path transform="translate(712,640)" d="m0 0 5 2 11 9 16 12 32 26 14 12 11 9 12 10 24 12 7 8 8 10 11 14-2 1-18-11-27-18-14-10-13-10-12-11-8-7-12-11-13-12-18-13-12-8-2-2z" fill="#B0E9F4"/>
<path transform="translate(463,566)" d="m0 0 10 3 20 4h35l17-3 15-4v26l-8-1-19-3-10-1h-11l-34 4-14 2-1-4z" fill="#F8A685"/>
<path transform="translate(309,820)" d="m0 0h1l-1 26-1 11h-94l-1-2 42-13 12-4 21-9zm-18 10m-5 1-2 4h4l3-2v-2zm10 1-4 3-1 4h13l1-1v-5l-1-1z" fill="#B1AFC1"/>
<path transform="translate(297,995)" d="m0 0h11l1 1 1 28h-60v-7l8-10 10-7 9-4h2v2z" fill="#535877"/>
<path transform="translate(728,995)" d="m0 0h12l15 3 14 6 10 8 4 6 1 6h-57v-13z" fill="#545978"/>
<path transform="translate(584,299)" d="m0 0h79l102 1 46 1 6 4 3 3-1 3-4-3-4-1-42-1-132-1-57-2 1-2h3z" fill="#F3F3F5"/>
<path transform="translate(612,620)" d="m0 0 32 6 63 11 2 1v11l-4 1-20-5-66-12-19-4-3-3 14-5z" fill="#B1E9F4"/>
<path transform="translate(416,620)" d="m0 0 7 1 14 5-1 2-58 11-35 7-11 3v-13l12-3 48-9z" fill="#B1E9F4"/>
<path transform="translate(130,750)" d="m0 0 10 1 8 1-13 26-4 12-5 1-13-3-3-3-1-5 4-8 12-18 3-3z" fill="#F6F6F7"/>
<path transform="translate(596,482)" d="m0 0h7l4 5v12l-8 27-4 10-4 3-8-1-4-2 1-6 9-24 5 4-3-8 2-9z" fill="#F9A788"/>
<path transform="translate(227,663)" d="m0 0h18l15 4 9 5 1 3-6-2-8-3-22 2-17 4-12 6-8 9-15 23-13 18-6 7h-2l1-5 11-18 13-18 7-11 9-10 9-8 8-4z" fill="#B0E7F3"/>
<path transform="translate(417,482)" d="m0 0h5l6 18-1 4-2 5h4l1-2 5 11 6 15-1 4-10 3-5-4-10-28-3-11v-8l3-6z" fill="#F8A687"/>
<path transform="translate(309,820)" d="m0 0h1l-1 26-1 1h-64l1-2 20-6 18-8zm-18 10m-5 1-2 4h4l3-2v-2zm10 1-4 3-1 4h13l1-1v-5l-1-1z" fill="#B3B2C3"/>
<path transform="translate(861,746)" d="m0 0 6 2 10 7 10 9 10 11 9 13 6 10 3 12v27l-3 10h-1l-2-24-5-23-4-9-8-11-17-17-8-10-5-5z" fill="#AFE7F2"/>
<path transform="translate(165,746)" d="m0 0 2 1-10 14-9 14-3 6-3 19-2 33h-2l-3-10-1-10v-14l3-14 5-13 7-11 7-8z" fill="#B0E5F1"/>
<path transform="translate(412,582)" d="m0 0h47l-1 2-7 1-185 4h-21v-1l7-1 113-4z" fill="#F0EFF2"/>
<path transform="translate(565,582)" d="m0 0h52l75 2 53 2 12 1v1h-41l-82-2-63-1-6-1z" fill="#F2F2F5"/>
<path transform="translate(215,857)" d="m0 0h93v4l-80 1-18-1-6-1v-1h38l-27-1z" fill="#594438"/>
<path transform="translate(559,596)" d="m0 0 10 1 12 3 10 12 4 5 5 3v1h-9l-7-2-18-18-7-4z" fill="#B1E9F4"/>
<path transform="translate(255,842)" d="m0 0h53v5h-64l1-2z" fill="#FBFBFB"/>
<path transform="translate(572,391)" d="m0 0 11 1 8 4 5 7 1 3v7l-3 7-5 5h-2l2-5 2-6-1-10-4-5-14-2-21-1 4-2 8-2z" fill="#EDA78F"/>
<path transform="translate(462,597)" d="m0 0h5l-20 20-5 3-9 1-2-2 10-9 7-9 9-3z" fill="#B0E8F4"/>
<path transform="translate(596,482)" d="m0 0h7l4 5v12l-8 27-4 10-3 1 2-9 6-25 1-5v-9l-2-3-3-1z" fill="#F5F5F7"/>
<path transform="translate(417,482)" d="m0 0h5v3l-3 2v13l4 18 5 15v5l-3-2-10-28-3-11v-8l3-6z" fill="#F4F5F6"/>
<path transform="translate(581,425)" d="m0 0 5 2 6 4 4 10v22l-1 6h-1l-2-18-4-12-7-12z" fill="#EFA78C"/>
<path transform="translate(215,857)" d="m0 0h93v4h-14l1-2-26 1-2-1-52-1z" fill="#545978"/>
<path transform="translate(748,994)" d="m0 0 8 1 12 5 10 7 7 8 2 8-3 1-4-9-4-5-11-7-14-5-3-1z" fill="#322E3C"/>
<path transform="translate(243,653)" d="m0 0 8 1 5 4 7 3 3 3-1 2-14-5-8-1h-11l1-3z" fill="#F3A994"/>
<path transform="translate(429,432)" d="m0 0h2l-2 6-5 13-1 6v15l-2-4-2-11v-10l3-10z" fill="#E8A893"/>
<path transform="translate(283,831)" d="m0 0 3 1-1 3 6-2 1 5h12v-6l3 1-1 6-1 1h-30l-7-1 3-3z" fill="#F7F7F8"/>
<path transform="translate(113,773)" d="m0 0v3l-1 5 14 4 6 1-2 5-9-1-10-3-2-4 1-6z" fill="#B0AEC0"/>
<path transform="translate(309,820)" d="m0 0h1l-1 11h-23l2-2z" fill="#F4F3F6"/>
<path transform="translate(272,998)" d="m0 0 4 1-4 4-6 3-7 5-4 6-2 7h-3v-7l8-10 10-7z" fill="#393440"/>
<path transform="translate(496,374)" d="m0 0h4l-2 4-12 6-12 5-4 1 5-6 16-8z" fill="#E8A995"/>
<path transform="translate(454,382)" d="m0 0h3l-2 5-8 11-8 8-3 1 2-5 14-18z" fill="#EBA892"/>
<path transform="translate(559,566)" d="m0 0h1v26h-4v-21l1-4z" fill="#F7F7F8"/>
<path transform="translate(270,852)" d="m0 0h24l-1 4h-22z" fill="#4A495D"/>
<path transform="translate(463,566)" d="m0 0 3 1 1 11v14l-3 1-1-4z" fill="#F2F1F4"/>
<path transform="translate(708,585)" d="m0 0 37 1 12 1v1h-41v-2h-8z" fill="#EAE9EE"/>
<path transform="translate(423,416)" d="m0 0v3l-7 6 5 5 3 4-6-2-8-6 5-5 5-4z" fill="#DDAA9D"/>
<path transform="translate(290,993)" d="m0 0h10l-3 3-16 3-3-1 2-3z" fill="#322C37"/>
<path transform="translate(295,857)" d="m0 0h13v4h-14z" fill="#636783"/>
<path transform="translate(382,616)" d="m0 0h27l-1 2-13 1-13-2z" fill="#8D90A5"/>
<path transform="translate(243,653)" d="m0 0 8 1 1 2h-13l-1 3-6 1 1-3z" fill="#E8E5EB"/>
<path transform="translate(538,381)" d="m0 0 5 1 9 6 2 4-4-1-10-8z" fill="#DBAAA0"/>
<path transform="translate(287,858)" d="m0 0h8l2 2-3 1h-17l1-2z" fill="#472A13"/>
<path transform="translate(304,832)" d="m0 0 3 1-1 6-1 1h-16l-1-5h3l1 3h12z" fill="#FDFDFD"/>
<path transform="translate(708,585)" d="m0 0h11l8 1-1 2h-10v-2h-8z" fill="#E0E1E8"/>
<path transform="translate(272,998)" d="m0 0 4 1-4 4-5 1 1-4z" fill="#2C2632"/>
</svg>
